<?xml version="1.0" encoding="UTF-8" standalone="no"?>
<!-- Created with Inkscape (http://www.inkscape.org/) -->

<svg
   width="140.66844mm"
   height="32.853222mm"
   viewBox="0 0 140.66844 32.853222"
   version="1.1"
   id="svg1"
   xml:space="preserve"
   xmlns="http://www.w3.org/2000/svg"
   xmlns:svg="http://www.w3.org/2000/svg"><defs
     id="defs1"><rect
       x="263.43671"
       y="619.89594"
       width="174.60783"
       height="66.335724"
       id="rect2" /><rect
       x="254.66818"
       y="619.89594"
       width="213.11305"
       height="85.39772"
       id="rect1" /><rect
       x="254.66818"
       y="619.89594"
       width="166.98303"
       height="105.98467"
       id="rect1-9" /><rect
       x="254.66818"
       y="619.89594"
       width="166.98303"
       height="105.98467"
       id="rect1-9-8" /><rect
       x="254.66818"
       y="619.89594"
       width="194.05106"
       height="107.12839"
       id="rect1-9-4" /><rect
       x="254.66818"
       y="619.89594"
       width="166.98303"
       height="105.98467"
       id="rect1-9-8-8" /></defs><g
     id="layer4"
     style="display:inline"
     transform="matrix(0.99071408,0,0,1.045158,-33.746028,-145.76941)"><rect
       style="fill:#ffffff;stroke:#ffffff;stroke-width:0.264999;stroke-dasharray:none;stroke-opacity:1"
       id="rect5"
       width="141.72192"
       height="31.168737"
       x="34.194828"
       y="139.60367" /></g><g
     id="layer1"
     style="display:inline"
     transform="translate(-35.37722,-139.46751)"><text
       xml:space="preserve"
       transform="matrix(0.26458333,0,0,0.26458333,1.763185,-6.6171067)"
       id="text1-1-7"
       style="font-size:18.6667px;letter-spacing:0.2px;white-space:pre;shape-inside:url(#rect1-9-8);display:inline;fill:#000000;stroke-width:1.00157;stroke-dasharray:none"><tspan
         x="254.66797"
         y="636.92668"
         id="tspan7"><tspan
           style="font-family:Arial;-inkscape-font-specification:Arial"
           id="tspan6">Canadian Forest </tspan></tspan><tspan
         x="254.66797"
         y="660.47612"
         id="tspan9"><tspan
           style="font-family:Arial;-inkscape-font-specification:Arial"
           id="tspan8">Service
</tspan></tspan></text><text
       xml:space="preserve"
       transform="matrix(0.26458333,0,0,0.26458333,53.027942,-6.6171067)"
       id="text1-1-7-3"
       style="font-size:18.6667px;letter-spacing:0.2px;white-space:pre;shape-inside:url(#rect1-9-8-8);display:inline;fill:#000000;stroke-width:1.00157;stroke-dasharray:none"><tspan
         x="254.66797"
         y="636.92668"
         id="tspan11"><tspan
           style="font-family:Arial;-inkscape-font-specification:Arial"
           id="tspan10">Service canadien </tspan></tspan><tspan
         x="254.66797"
         y="660.47612"
         id="tspan13"><tspan
           style="font-family:Arial;-inkscape-font-specification:Arial"
           id="tspan12">des forêts
</tspan></tspan></text><text
       xml:space="preserve"
       transform="scale(0.26458333)"
       id="text1"
       style="font-style:normal;font-variant:normal;font-weight:normal;font-stretch:normal;font-size:8px;font-family:Arial;-inkscape-font-specification:Arial;letter-spacing:0.2px;white-space:pre;shape-inside:url(#rect2);display:inline;fill:#000000;stroke-width:1.00157;stroke-dasharray:none" /><text
       xml:space="preserve"
       transform="matrix(0.26458333,0,0,0.26458333,1.7390693,-21.325601)"
       id="text1-1"
       style="font-size:18.6667px;letter-spacing:0.2px;white-space:pre;shape-inside:url(#rect1-9);display:inline;fill:#000000;stroke-width:1.00157;stroke-dasharray:none"><tspan
         x="254.66797"
         y="636.92668"
         id="tspan15"><tspan
           style="font-family:Arial;-inkscape-font-specification:Arial"
           id="tspan14">Natural Resources </tspan></tspan><tspan
         x="254.66797"
         y="660.47612"
         id="tspan17"><tspan
           style="font-family:Arial;-inkscape-font-specification:Arial"
           id="tspan16">Canada
</tspan></tspan></text><text
       xml:space="preserve"
       transform="matrix(0.26458333,0,0,0.26458333,52.950772,-21.325601)"
       id="text1-1-6"
       style="font-size:18.6667px;letter-spacing:0.2px;white-space:pre;shape-inside:url(#rect1-9-4);display:inline;fill:#000000;stroke-width:1.00157;stroke-dasharray:none"><tspan
         x="254.66797"
         y="636.92668"
         id="tspan19"><tspan
           style="font-family:Arial;-inkscape-font-specification:Arial"
           id="tspan18">Ressources naturelles </tspan></tspan><tspan
         x="254.66797"
         y="660.47612"
         id="tspan21"><tspan
           style="font-family:Arial;-inkscape-font-specification:Arial"
           id="tspan20">Canada
</tspan></tspan></text></g><g
     id="layer3"
     transform="translate(-35.37722,-139.46751)"><g
       id="g3"
       transform="matrix(0.26458333,0,0,0.26458333,39.426192,143.47146)"
       style="display:inline"><g
         id="g5"><rect
           x="0"
           width="19.006001"
           height="38.007999"
           id="rect7"
           y="0"
           style="fill:#ed1c24" /><path
           d="M 9.501,19.004"
           id="path9"
           style="fill:#ed1c24" /></g><path
         d="m 51.879,18.997 -0.41,-0.204 c -0.639,-0.3 -0.538,-0.837 -0.439,-1.198 0.1,-0.358 1.165,-4.094 1.165,-4.094 0,0 -2.792,0.626 -3.443,0.727 -0.519,0.08 -0.7,-0.16 -0.858,-0.52 -0.16,-0.359 -0.838,-1.994 -0.838,-1.994 0,0 -3.418,3.783 -3.492,3.851 -0.658,0.598 -1.296,0.139 -1.176,-0.559 0.108,-0.636 1.756,-8.202 1.756,-8.202 0,0 -1.817,1.078 -2.413,1.437 -0.6,0.358 -0.919,0.3 -1.238,-0.279 C 40.174,7.384 37.934,2.893 37.934,2.893 h 0.005 c 0,0 -2.239,4.491 -2.559,5.069 -0.319,0.579 -0.64,0.637 -1.238,0.279 -0.598,-0.358 -2.414,-1.437 -2.414,-1.437 0,0 1.645,7.565 1.756,8.202 0.118,0.699 -0.521,1.157 -1.178,0.559 -0.074,-0.068 -3.492,-3.851 -3.492,-3.851 0,0 -0.679,1.636 -0.837,1.994 -0.161,0.359 -0.34,0.598 -0.859,0.52 -0.653,-0.101 -3.556,-0.727 -3.556,-0.727 0,0 1.178,3.736 1.278,4.094 0.099,0.36 0.2,0.898 -0.44,1.198 l -0.411,0.204 z"
         id="path11"
         style="fill:#ed1c24" /><path
         d="m 23.987,18.997 -0.646,0.315 c 0,0 6.469,5.593 6.689,5.791 0.218,0.199 0.638,0.373 0.319,1.333 -0.319,0.958 -0.779,2.253 -0.779,2.253 0,0 5.986,-1.215 6.625,-1.356 0.638,-0.141 1.177,0.079 1.177,0.718 0,0.638 -0.26,7.044 -0.26,7.044 h 1.642 c 0,0 -0.259,-6.407 -0.259,-7.044 0,-0.639 0.539,-0.859 1.177,-0.718 0.638,0.14 6.624,1.356 6.624,1.356 0,0 -0.459,-1.295 -0.78,-2.253 -0.318,-0.96 0.1,-1.134 0.32,-1.333 0.219,-0.198 6.688,-5.791 6.688,-5.791 l -0.646,-0.315 z"
         id="path13"
         style="fill:#ed1c24" /><path
         d="m 38.754,35.096 c 0,0 -0.259,-6.407 -0.259,-7.044 0,-0.639 0.539,-0.859 1.177,-0.718 0.639,0.14 6.624,1.356 6.624,1.356 0,0 -0.458,-1.295 -0.779,-2.253 -0.319,-0.96 0.099,-1.134 0.319,-1.333 0.22,-0.198 6.688,-5.791 6.688,-5.791 l -1.057,-0.519 c -0.639,-0.3 -0.538,-0.837 -0.439,-1.198 0.1,-0.358 1.165,-4.094 1.165,-4.094 0,0 -2.791,0.626 -3.443,0.727 -0.519,0.08 -0.7,-0.16 -0.858,-0.52 -0.161,-0.359 -0.838,-1.994 -0.838,-1.994 0,0 -3.418,3.783 -3.492,3.851 -0.659,0.598 -1.296,0.139 -1.176,-0.559 0.108,-0.636 1.756,-8.202 1.756,-8.202 0,0 -1.816,1.078 -2.413,1.437 C 41.129,8.6 40.81,8.542 40.491,7.963 40.172,7.385 37.932,2.894 37.932,2.894 h 0.005 c 0,0 -2.239,4.491 -2.558,5.069 -0.32,0.579 -0.64,0.637 -1.238,0.279 -0.599,-0.358 -2.414,-1.437 -2.414,-1.437 0,0 1.645,7.565 1.754,8.202 0.119,0.699 -0.52,1.157 -1.177,0.559 -0.074,-0.068 -3.492,-3.851 -3.492,-3.851 0,0 -0.678,1.636 -0.837,1.994 -0.16,0.359 -0.34,0.598 -0.86,0.52 -0.652,-0.101 -3.555,-0.727 -3.555,-0.727 0,0 1.178,3.736 1.278,4.094 0.099,0.36 0.2,0.898 -0.44,1.198 l -1.057,0.519 c 0,0 6.469,5.593 6.689,5.791 0.218,0.199 0.638,0.373 0.319,1.333 -0.319,0.958 -0.779,2.253 -0.779,2.253 0,0 5.986,-1.215 6.625,-1.356 0.638,-0.141 1.177,0.079 1.177,0.718 0,0.638 -0.26,7.044 -0.26,7.044 z"
         id="path15"
         style="fill:#ed1c24" /><g
         id="g17"
         style="display:inline"><rect
           x="56.987999"
           width="19.004999"
           height="38.007999"
           id="rect19"
           y="0"
           style="fill:#ed1c24" /><path
           d="M 66.488,19.004"
           id="path21"
           style="fill:#ed1c24" /></g><g
         id="g23"
         style="display:none"><path
           d="m 308.689,0.596 h 6.481 c 2.584,0 4.187,1.407 4.187,3.608 0,1.659 -0.733,3.029 -2.393,3.492 v 0.037 c 1.603,0.309 1.93,1.486 2.065,2.837 0.116,1.351 0.039,2.854 0.812,3.801 h -2.047 c -0.522,-0.562 -0.229,-2.046 -0.503,-3.395 C 317.1,9.625 316.77,8.487 314.994,8.487 h -4.478 v 5.884 h -1.829 V 0.596 Z m 5.65,6.348 c 1.718,0 3.188,-0.444 3.188,-2.45 0,-1.351 -0.732,-2.355 -2.453,-2.355 h -4.554 v 4.806 h 3.819 z"
           id="path25" /><path
           d="m 330.146,11.207 c -0.447,2.2 -2.03,3.395 -4.266,3.395 -3.184,0 -4.688,-2.199 -4.786,-5.25 0,-2.989 1.969,-5.189 4.687,-5.189 3.533,0 4.612,3.299 4.52,5.711 h -7.47 c -0.058,1.736 0.927,3.28 3.105,3.28 1.35,0 2.298,-0.656 2.586,-1.948 h 1.624 z m -1.586,-2.78 c -0.074,-1.562 -1.25,-2.817 -2.874,-2.817 -1.716,0 -2.739,1.292 -2.854,2.817 z"
           id="path27" /><path
           d="m 332.999,11.226 c 0.059,1.466 1.329,1.93 2.68,1.93 1.024,0 2.412,-0.232 2.412,-1.485 0,-1.274 -1.617,-1.486 -3.262,-1.853 C 333.213,9.451 331.573,8.91 331.573,7 c 0,-2.005 1.984,-2.835 3.723,-2.835 2.2,0 3.957,0.694 4.092,3.125 h -1.644 c -0.112,-1.273 -1.231,-1.679 -2.312,-1.679 -0.985,0 -2.124,0.27 -2.124,1.275 0,1.175 1.735,1.37 3.26,1.735 1.64,0.367 3.262,0.908 3.262,2.835 0,2.373 -2.219,3.146 -4.246,3.146 -2.236,0 -4.128,-0.907 -4.225,-3.377 h 1.64 z"
           id="path29" /><path
           d="m 342.645,11.226 c 0.059,1.466 1.332,1.93 2.684,1.93 1.023,0 2.409,-0.232 2.409,-1.485 0,-1.274 -1.62,-1.486 -3.26,-1.853 -1.62,-0.367 -3.26,-0.908 -3.26,-2.818 0,-2.005 1.989,-2.835 3.725,-2.835 2.201,0 3.957,0.694 4.09,3.125 h -1.64 c -0.114,-1.273 -1.234,-1.679 -2.314,-1.679 -0.984,0 -2.123,0.27 -2.123,1.275 0,1.175 1.735,1.37 3.262,1.735 1.64,0.367 3.26,0.908 3.26,2.835 0,2.373 -2.222,3.146 -4.244,3.146 -2.24,0 -4.13,-0.907 -4.229,-3.377 h 1.642 v 0.001 z"
           id="path31" /><path
           d="m 355.593,4.165 c 3.162,0 4.843,2.295 4.843,5.229 0,2.913 -1.681,5.208 -4.843,5.208 -3.165,0 -4.844,-2.296 -4.844,-5.208 0,-2.934 1.679,-5.229 4.844,-5.229 z m 0,8.991 c 1.717,0 3.104,-1.351 3.104,-3.762 0,-2.431 -1.387,-3.783 -3.104,-3.783 -1.719,0 -3.106,1.353 -3.106,3.783 -0.001,2.411 1.387,3.762 3.106,3.762 z"
           id="path33" /><path
           d="m 370.624,14.372 h -1.546 V 12.79 h -0.037 c -0.693,1.236 -1.813,1.813 -3.243,1.813 -2.623,0 -3.433,-1.505 -3.433,-3.646 v -6.56 h 1.642 v 6.753 c 0,1.215 0.772,2.007 2.023,2.007 1.986,0 2.952,-1.33 2.952,-3.126 V 4.396 h 1.642 z"
           id="path35" /><path
           d="m 373.033,4.396 h 1.545 v 2.103 h 0.036 c 0.791,-1.601 1.892,-2.393 3.668,-2.334 V 5.9 c -2.644,0 -3.609,1.506 -3.609,4.034 v 4.438 h -1.642 V 4.396 Z"
           id="path37" /><path
           d="m 387.986,7.599 c -0.231,-2.373 -2.044,-3.434 -4.302,-3.434 -3.164,0 -4.707,2.354 -4.707,5.344 0,2.972 1.618,5.094 4.667,5.094 2.512,0 4.032,-1.447 4.398,-3.878 h -1.676 c -0.211,1.504 -1.161,2.431 -2.741,2.431 -2.082,0 -2.915,-1.813 -2.915,-3.647 0,-2.025 0.734,-3.898 3.109,-3.898 1.35,0 2.215,0.734 2.468,1.988 z"
           id="path39" /><path
           d="m 398.388,11.207 c -0.444,2.2 -2.027,3.395 -4.268,3.395 -3.182,0 -4.687,-2.199 -4.784,-5.25 0,-2.989 1.967,-5.189 4.69,-5.189 3.529,0 4.611,3.299 4.514,5.711 h -7.465 c -0.061,1.736 0.924,3.28 3.107,3.28 1.35,0 2.292,-0.656 2.584,-1.948 h 1.621 v 0.001 z m -1.583,-2.78 C 396.727,6.865 395.55,5.61 393.93,5.61 c -1.716,0 -2.739,1.292 -2.854,2.817 z"
           id="path41" /><path
           d="m 401.242,11.226 c 0.057,1.466 1.332,1.93 2.683,1.93 1.021,0 2.409,-0.232 2.409,-1.485 0,-1.274 -1.62,-1.486 -3.26,-1.853 C 401.453,9.451 399.812,8.91 399.812,7 c 0,-2.005 1.989,-2.835 3.724,-2.835 2.2,0 3.957,0.694 4.091,3.125 h -1.638 c -0.119,-1.273 -1.236,-1.679 -2.316,-1.679 -0.984,0 -2.123,0.27 -2.123,1.275 0,1.175 1.735,1.37 3.26,1.735 1.642,0.367 3.258,0.908 3.258,2.835 0,2.373 -2.217,3.146 -4.244,3.146 -2.234,0 -4.128,-0.907 -4.225,-3.377 h 1.644 v 0.001 z"
           id="path43" /><path
           d="m 415.25,4.396 h 1.542 v 1.582 h 0.037 c 0.696,-1.236 1.814,-1.813 3.244,-1.813 2.624,0 3.431,1.506 3.431,3.646 v 6.561 h -1.642 V 7.618 c 0,-1.216 -0.77,-2.007 -2.023,-2.007 -1.984,0 -2.952,1.333 -2.952,3.126 v 5.634 h -1.639 V 4.396 Z"
           id="path45" /><path
           d="m 434.812,14.333 c -0.289,0.172 -0.655,0.269 -1.176,0.269 -0.851,0 -1.391,-0.463 -1.391,-1.544 -0.903,1.061 -2.123,1.544 -3.511,1.544 -1.815,0 -3.301,-0.811 -3.301,-2.798 0,-2.257 1.681,-2.739 3.379,-3.067 1.812,-0.348 3.357,-0.232 3.357,-1.466 0,-1.428 -1.178,-1.661 -2.219,-1.661 -1.391,0 -2.414,0.425 -2.489,1.892 h -1.641 c 0.096,-2.47 2.007,-3.337 4.226,-3.337 1.795,0 3.742,0.405 3.742,2.739 v 5.133 c 0,0.773 0,1.12 0.521,1.12 0.135,0 0.289,-0.02 0.501,-0.097 z m -2.661,-5.114 c -0.638,0.463 -1.87,0.483 -2.972,0.675 -1.08,0.193 -2.008,0.578 -2.008,1.793 0,1.081 0.928,1.467 1.928,1.467 2.16,0 3.049,-1.351 3.049,-2.258 V 9.219 Z"
           id="path47" /><path
           d="m 438.614,4.396 h 1.986 v 1.446 h -1.986 v 6.194 c 0,0.753 0.212,0.888 1.235,0.888 h 0.751 v 1.448 h -1.254 c -1.698,0 -2.374,-0.348 -2.374,-2.18 v -6.35 h -1.698 V 4.396 h 1.698 v -2.99 h 1.642 z"
           id="path49" /><path
           d="M 450.674,14.372 H 449.13 V 12.79 h -0.041 c -0.694,1.236 -1.812,1.813 -3.237,1.813 -2.625,0 -3.438,-1.505 -3.438,-3.646 v -6.56 h 1.642 v 6.753 c 0,1.215 0.772,2.007 2.024,2.007 1.99,0 2.951,-1.33 2.951,-3.126 V 4.396 h 1.644 v 9.976 z"
           id="path51" /><path
           d="m 453.083,4.396 h 1.543 v 2.103 h 0.041 c 0.791,-1.601 1.891,-2.393 3.665,-2.334 V 5.9 c -2.644,0 -3.606,1.506 -3.606,4.034 v 4.438 h -1.643 z"
           id="path53" /><path
           d="m 468.074,11.207 c -0.44,2.2 -2.023,3.395 -4.264,3.395 -3.182,0 -4.689,-2.199 -4.784,-5.25 0,-2.989 1.969,-5.189 4.688,-5.189 3.531,0 4.611,3.299 4.516,5.711 h -7.467 c -0.057,1.736 0.928,3.28 3.105,3.28 1.351,0 2.297,-0.656 2.587,-1.948 h 1.618 v 0.001 z m -1.579,-2.78 c -0.08,-1.562 -1.26,-2.817 -2.876,-2.817 -1.718,0 -2.743,1.292 -2.855,2.817 z"
           id="path55" /><path
           d="m 470.025,0.596 h 1.638 v 13.776 h -1.638 z"
           id="path57" /><path
           d="m 474.307,0.596 h 1.64 v 13.776 h -1.64 z"
           id="path59" /><path
           d="m 487.001,11.207 c -0.443,2.2 -2.024,3.395 -4.262,3.395 -3.184,0 -4.687,-2.199 -4.786,-5.25 0,-2.989 1.969,-5.189 4.688,-5.189 3.531,0 4.611,3.299 4.516,5.711 h -7.466 c -0.058,1.736 0.928,3.28 3.105,3.28 1.351,0 2.297,-0.656 2.585,-1.948 h 1.62 z m -1.582,-2.78 c -0.078,-1.562 -1.251,-2.817 -2.875,-2.817 -1.716,0 -2.741,1.292 -2.854,2.817 z"
           id="path61" /><path
           d="m 488.218,11.226 c 0.097,2.471 1.986,3.376 4.225,3.376 2.027,0 4.246,-0.772 4.246,-3.145 0,-1.93 -1.623,-2.47 -3.26,-2.836 -1.526,-0.365 -3.262,-0.559 -3.262,-1.735 0,-1.004 1.139,-1.274 2.125,-1.274 1.078,0 2.197,0.405 2.314,1.678 h 1.642 c -0.137,-2.43 -1.894,-3.125 -4.093,-3.125 -1.736,0 -3.723,0.83 -3.723,2.835 0,1.911 1.642,2.45 3.261,2.817 1.641,0.366 3.26,0.578 3.26,1.854 0,1.253 -1.392,1.484 -2.413,1.484 -1.35,0 -2.62,-0.463 -2.681,-1.93 z"
           id="path63" /><path
           d="m 318.373,28.056 c -0.385,-1.949 -1.945,-2.933 -3.856,-2.933 -3.283,0 -4.672,2.704 -4.672,5.576 0,3.146 1.389,5.77 4.689,5.77 2.413,0 3.799,-1.699 3.976,-3.975 h 1.832 c -0.345,3.433 -2.489,5.517 -5.962,5.517 -4.285,0 -6.367,-3.16 -6.367,-7.176 0,-3.993 2.277,-7.253 6.521,-7.253 2.876,0 5.25,1.542 5.674,4.475 h -1.835 z"
           id="path65" /><path
           d="m 331.186,37.645 c -0.291,0.175 -0.657,0.272 -1.176,0.272 -0.851,0 -1.392,-0.464 -1.392,-1.544 -0.905,1.063 -2.122,1.544 -3.51,1.544 -1.815,0 -3.303,-0.812 -3.303,-2.801 0,-2.255 1.681,-2.736 3.379,-3.067 1.812,-0.346 3.359,-0.229 3.359,-1.466 0,-1.426 -1.18,-1.658 -2.219,-1.658 -1.391,0 -2.414,0.424 -2.491,1.891 h -1.641 c 0.096,-2.469 2.007,-3.337 4.226,-3.337 1.793,0 3.742,0.403 3.742,2.738 v 5.132 c 0,0.771 0,1.12 0.521,1.12 0.135,0 0.289,-0.018 0.501,-0.096 v 1.272 z m -2.664,-5.111 c -0.636,0.461 -1.872,0.482 -2.971,0.674 -1.08,0.192 -2.007,0.579 -2.007,1.794 0,1.083 0.927,1.467 1.93,1.467 2.16,0 3.047,-1.354 3.047,-2.257 z"
           id="path67" /><path
           d="m 332.71,27.709 h 1.542 v 1.582 h 0.041 c 0.692,-1.235 1.811,-1.812 3.238,-1.812 2.622,0 3.438,1.505 3.438,3.647 v 6.559 h -1.642 v -6.754 c 0,-1.214 -0.774,-2.006 -2.026,-2.006 -1.99,0 -2.951,1.332 -2.951,3.124 v 5.636 h -1.642 V 27.71 h 0.002 z"
           id="path69" /><path
           d="m 352.272,37.645 c -0.289,0.175 -0.655,0.272 -1.178,0.272 -0.848,0 -1.388,-0.464 -1.388,-1.544 -0.905,1.063 -2.122,1.544 -3.512,1.544 -1.812,0 -3.299,-0.812 -3.299,-2.801 0,-2.255 1.679,-2.736 3.375,-3.067 1.814,-0.346 3.359,-0.229 3.359,-1.466 0,-1.426 -1.179,-1.658 -2.219,-1.658 -1.391,0 -2.412,0.424 -2.49,1.891 h -1.644 c 0.1,-2.469 2.011,-3.337 4.227,-3.337 1.796,0 3.743,0.403 3.743,2.738 v 5.132 c 0,0.771 0,1.12 0.521,1.12 0.137,0 0.291,-0.018 0.503,-0.096 z m -2.662,-5.111 c -0.638,0.461 -1.873,0.482 -2.971,0.674 -1.082,0.192 -2.009,0.579 -2.009,1.794 0,1.083 0.927,1.467 1.933,1.467 2.16,0 3.047,-1.354 3.047,-2.257 z"
           id="path71" /><path
           d="m 362.713,37.685 h -1.642 v -1.353 h -0.038 c -0.539,1.104 -1.812,1.585 -3.184,1.585 -3.07,0 -4.593,-2.433 -4.593,-5.25 0,-2.817 1.505,-5.19 4.554,-5.19 1.021,0 2.488,0.384 3.221,1.562 h 0.039 v -5.134 h 1.642 z m -4.631,-1.215 c 2.199,0 3.048,-1.892 3.048,-3.763 0,-1.968 -0.89,-3.782 -3.147,-3.782 -2.236,0 -2.989,1.912 -2.989,3.856 -0.001,1.875 0.965,3.689 3.088,3.689 z"
           id="path73" /><path
           d="m 374.076,37.645 c -0.29,0.175 -0.659,0.272 -1.18,0.272 -0.848,0 -1.386,-0.464 -1.386,-1.544 -0.908,1.063 -2.125,1.544 -3.513,1.544 -1.812,0 -3.299,-0.812 -3.299,-2.801 0,-2.255 1.676,-2.736 3.374,-3.067 1.815,-0.346 3.359,-0.229 3.359,-1.466 0,-1.426 -1.178,-1.658 -2.221,-1.658 -1.388,0 -2.411,0.424 -2.489,1.891 h -1.641 c 0.098,-2.469 2.007,-3.337 4.226,-3.337 1.796,0 3.742,0.403 3.742,2.738 v 5.132 c 0,0.771 0,1.12 0.521,1.12 0.137,0 0.291,-0.018 0.503,-0.096 v 1.272 z m -2.663,-5.111 c -0.64,0.461 -1.873,0.482 -2.974,0.674 -1.08,0.192 -2.008,0.579 -2.008,1.794 0,1.083 0.928,1.467 1.931,1.467 2.161,0 3.049,-1.354 3.049,-2.257 v -1.679 h 0.002 z"
           id="path75" /></g><g
         id="g77"
         style="display:none"><path
           d="m 113.816,0.596 h 1.951 l 7.253,11.17 h 0.039 V 0.596 h 1.737 v 13.776 h -2.007 L 115.592,3.316 h -0.039 v 11.056 h -1.737 z"
           id="path79" /><path
           d="m 136.333,14.333 c -0.289,0.172 -0.655,0.269 -1.176,0.269 -0.849,0 -1.389,-0.463 -1.389,-1.544 -0.907,1.061 -2.121,1.544 -3.512,1.544 -1.813,0 -3.298,-0.811 -3.298,-2.798 0,-2.257 1.679,-2.739 3.375,-3.067 1.814,-0.348 3.358,-0.232 3.358,-1.466 0,-1.428 -1.176,-1.661 -2.219,-1.661 -1.387,0 -2.411,0.425 -2.488,1.892 h -1.64 c 0.096,-2.47 2.005,-3.337 4.226,-3.337 1.793,0 3.744,0.405 3.744,2.739 v 5.133 c 0,0.773 0,1.12 0.521,1.12 0.134,0 0.289,-0.02 0.501,-0.097 z m -2.662,-5.114 c -0.636,0.463 -1.871,0.483 -2.971,0.675 -1.081,0.193 -2.007,0.578 -2.007,1.793 0,1.081 0.926,1.467 1.931,1.467 2.16,0 3.047,-1.351 3.047,-2.258 z"
           id="path81" /><path
           d="m 140.134,4.396 h 1.987 v 1.446 h -1.987 v 6.194 c 0,0.753 0.212,0.888 1.235,0.888 h 0.752 v 1.448 h -1.255 c -1.697,0 -2.373,-0.348 -2.373,-2.18 v -6.35 h -1.698 V 4.396 h 1.698 v -2.99 h 1.64 v 2.99 z"
           id="path83" /><path
           d="m 152.193,14.372 h -1.544 V 12.79 h -0.037 c -0.695,1.236 -1.813,1.813 -3.242,1.813 -2.623,0 -3.434,-1.505 -3.434,-3.646 v -6.56 h 1.64 v 6.753 c 0,1.215 0.771,2.007 2.025,2.007 1.987,0 2.952,-1.33 2.952,-3.126 V 4.396 h 1.641 v 9.976 z"
           id="path85" /><path
           d="m 154.604,4.396 h 1.545 v 2.103 h 0.037 c 0.792,-1.601 1.891,-2.393 3.667,-2.334 V 5.9 c -2.643,0 -3.608,1.506 -3.608,4.034 v 4.438 h -1.64 V 4.396 Z"
           id="path87" /><path
           d="m 169.923,14.333 c -0.289,0.172 -0.654,0.269 -1.177,0.269 -0.848,0 -1.388,-0.463 -1.388,-1.544 -0.908,1.061 -2.124,1.544 -3.512,1.544 -1.813,0 -3.301,-0.811 -3.301,-2.798 0,-2.257 1.679,-2.739 3.377,-3.067 1.814,-0.348 3.357,-0.232 3.357,-1.466 0,-1.428 -1.178,-1.661 -2.218,-1.661 -1.39,0 -2.412,0.425 -2.49,1.892 h -1.641 c 0.097,-2.47 2.007,-3.337 4.227,-3.337 1.794,0 3.742,0.405 3.742,2.739 v 5.133 c 0,0.773 0,1.12 0.522,1.12 0.134,0 0.29,-0.02 0.501,-0.097 v 1.273 z m -2.662,-5.114 c -0.637,0.463 -1.871,0.483 -2.971,0.675 -1.08,0.193 -2.005,0.578 -2.005,1.793 0,1.081 0.925,1.467 1.929,1.467 2.161,0 3.049,-1.351 3.049,-2.258 V 9.219 Z"
           id="path89" /><path
           d="m 171.544,0.596 h 1.642 v 13.776 h -1.642 z"
           id="path91" /><path
           d="m 181.365,0.596 h 6.482 c 2.586,0 4.188,1.407 4.188,3.608 0,1.659 -0.733,3.029 -2.393,3.492 v 0.037 c 1.6,0.309 1.93,1.486 2.064,2.837 0.117,1.351 0.039,2.854 0.812,3.801 h -2.045 c -0.522,-0.562 -0.231,-2.046 -0.503,-3.395 -0.191,-1.351 -0.521,-2.489 -2.296,-2.489 h -4.478 v 5.884 h -1.831 z m 5.653,6.348 c 1.718,0 3.183,-0.444 3.183,-2.45 0,-1.351 -0.733,-2.355 -2.45,-2.355 h -4.553 v 4.806 h 3.82 z"
           id="path93" /><path
           d="m 202.819,11.207 c -0.444,2.2 -2.024,3.395 -4.265,3.395 -3.181,0 -4.688,-2.199 -4.784,-5.25 0,-2.989 1.968,-5.189 4.689,-5.189 3.531,0 4.612,3.299 4.514,5.711 h -7.465 c -0.06,1.736 0.924,3.28 3.106,3.28 1.35,0 2.294,-0.656 2.586,-1.948 h 1.619 z m -1.583,-2.78 C 201.16,6.865 199.983,5.61 198.362,5.61 c -1.717,0 -2.74,1.292 -2.854,2.817 z"
           id="path95" /><path
           d="m 205.674,11.226 c 0.059,1.466 1.333,1.93 2.684,1.93 1.024,0 2.41,-0.232 2.41,-1.485 0,-1.274 -1.618,-1.486 -3.261,-1.853 -1.619,-0.367 -3.26,-0.908 -3.26,-2.818 0,-2.005 1.989,-2.835 3.725,-2.835 2.201,0 3.956,0.694 4.091,3.125 h -1.64 c -0.117,-1.273 -1.234,-1.679 -2.315,-1.679 -0.983,0 -2.122,0.27 -2.122,1.275 0,1.175 1.734,1.37 3.26,1.735 1.642,0.367 3.262,0.908 3.262,2.835 0,2.373 -2.219,3.146 -4.246,3.146 -2.238,0 -4.13,-0.907 -4.228,-3.377 h 1.641 v 0.001 z"
           id="path97" /><path
           d="m 218.621,4.165 c 3.163,0 4.844,2.295 4.844,5.229 0,2.913 -1.68,5.208 -4.844,5.208 -3.166,0 -4.846,-2.296 -4.846,-5.208 0.002,-2.934 1.682,-5.229 4.846,-5.229 z m 0,8.991 c 1.716,0 3.107,-1.351 3.107,-3.762 0,-2.431 -1.391,-3.783 -3.107,-3.783 -1.719,0 -3.107,1.353 -3.107,3.783 0.002,2.411 1.389,3.762 3.107,3.762 z"
           id="path99" /><path
           d="m 233.65,14.372 h -1.542 V 12.79 h -0.039 c -0.696,1.236 -1.812,1.813 -3.242,1.813 -2.622,0 -3.434,-1.505 -3.434,-3.646 v -6.56 h 1.642 v 6.753 c 0,1.215 0.768,2.007 2.025,2.007 1.986,0 2.952,-1.33 2.952,-3.126 V 4.396 h 1.638 z"
           id="path101" /><path
           d="m 236.063,4.396 h 1.543 v 2.103 h 0.039 c 0.789,-1.601 1.891,-2.393 3.664,-2.334 V 5.9 c -2.644,0 -3.606,1.506 -3.606,4.034 v 4.438 h -1.642 V 4.396 Z"
           id="path103" /><path
           d="m 249.317,7.599 c -0.25,-1.253 -1.119,-1.988 -2.471,-1.988 -2.374,0 -3.107,1.873 -3.107,3.898 0,1.832 0.83,3.647 2.915,3.647 1.582,0 2.526,-0.927 2.741,-2.431 h 1.677 c -0.365,2.431 -1.892,3.878 -4.4,3.878 -3.047,0 -4.668,-2.122 -4.668,-5.094 0,-2.989 1.545,-5.344 4.709,-5.344 2.255,0 4.068,1.061 4.301,3.434 z"
           id="path105" /><path
           d="m 261.417,11.207 c -0.447,2.2 -2.027,3.395 -4.266,3.395 -3.182,0 -4.687,-2.199 -4.785,-5.25 0,-2.989 1.97,-5.189 4.688,-5.189 3.533,0 4.614,3.299 4.518,5.711 h -7.468 c -0.059,1.736 0.926,3.28 3.104,3.28 1.354,0 2.3,-0.656 2.588,-1.948 h 1.622 v 0.001 z m -1.584,-2.78 C 259.755,6.865 258.58,5.61 256.958,5.61 c -1.718,0 -2.739,1.292 -2.856,2.817 z"
           id="path107" /><path
           d="m 264.271,11.226 c 0.059,1.466 1.331,1.93 2.682,1.93 1.021,0 2.41,-0.232 2.41,-1.485 0,-1.274 -1.618,-1.486 -3.26,-1.853 -1.62,-0.367 -3.26,-0.908 -3.26,-2.818 0,-2.005 1.987,-2.835 3.724,-2.835 2.199,0 3.956,0.694 4.09,3.125 h -1.637 c -0.119,-1.273 -1.238,-1.679 -2.318,-1.679 -0.984,0 -2.123,0.27 -2.123,1.275 0,1.175 1.736,1.37 3.26,1.735 1.641,0.367 3.261,0.908 3.261,2.835 0,2.373 -2.219,3.146 -4.244,3.146 -2.235,0 -4.129,-0.907 -4.227,-3.377 h 1.643 v 0.001 z"
           id="path109" /><path
           d="m 123.521,28.056 c -0.384,-1.949 -1.947,-2.933 -3.859,-2.933 -3.279,0 -4.669,2.704 -4.669,5.576 0,3.146 1.391,5.77 4.688,5.77 2.412,0 3.8,-1.699 3.976,-3.975 h 1.831 c -0.346,3.433 -2.489,5.517 -5.961,5.517 -4.282,0 -6.367,-3.16 -6.367,-7.176 0,-3.993 2.277,-7.253 6.521,-7.253 2.875,0 5.249,1.542 5.673,4.475 h -1.833 z"
           id="path111" /><path
           d="m 136.333,37.645 c -0.289,0.175 -0.655,0.272 -1.176,0.272 -0.849,0 -1.389,-0.464 -1.389,-1.544 -0.907,1.063 -2.121,1.544 -3.512,1.544 -1.813,0 -3.298,-0.812 -3.298,-2.801 0,-2.255 1.679,-2.736 3.375,-3.067 1.814,-0.346 3.358,-0.229 3.358,-1.466 0,-1.426 -1.176,-1.658 -2.219,-1.658 -1.387,0 -2.411,0.424 -2.488,1.891 h -1.64 c 0.096,-2.469 2.005,-3.337 4.226,-3.337 1.793,0 3.744,0.403 3.744,2.738 v 5.132 c 0,0.771 0,1.12 0.521,1.12 0.134,0 0.289,-0.018 0.501,-0.096 z m -2.662,-5.111 c -0.636,0.461 -1.871,0.482 -2.971,0.674 -1.081,0.192 -2.007,0.579 -2.007,1.794 0,1.083 0.926,1.467 1.931,1.467 2.16,0 3.047,-1.354 3.047,-2.257 z"
           id="path113" /><path
           d="m 137.856,27.709 h 1.544 v 1.582 h 0.038 c 0.695,-1.235 1.812,-1.812 3.24,-1.812 2.625,0 3.436,1.505 3.436,3.647 v 6.559 h -1.64 v -6.754 c 0,-1.214 -0.773,-2.006 -2.026,-2.006 -1.987,0 -2.952,1.332 -2.952,3.124 v 5.636 h -1.64 z"
           id="path115" /><path
           d="m 157.42,37.645 c -0.29,0.175 -0.655,0.272 -1.176,0.272 -0.849,0 -1.389,-0.464 -1.389,-1.544 -0.908,1.063 -2.122,1.544 -3.513,1.544 -1.813,0 -3.297,-0.812 -3.297,-2.801 0,-2.255 1.678,-2.736 3.375,-3.067 1.813,-0.346 3.357,-0.229 3.357,-1.466 0,-1.426 -1.179,-1.658 -2.219,-1.658 -1.389,0 -2.411,0.424 -2.489,1.891 h -1.64 c 0.095,-2.469 2.005,-3.337 4.226,-3.337 1.794,0 3.744,0.403 3.744,2.738 v 5.132 c 0,0.771 0,1.12 0.521,1.12 0.135,0 0.29,-0.018 0.502,-0.096 v 1.272 z m -2.662,-5.111 c -0.636,0.461 -1.871,0.482 -2.972,0.674 -1.079,0.192 -2.005,0.579 -2.005,1.794 0,1.083 0.926,1.467 1.929,1.467 2.162,0 3.048,-1.354 3.048,-2.257 z"
           id="path117" /><path
           d="m 167.859,37.685 h -1.64 v -1.353 h -0.04 c -0.541,1.104 -1.813,1.585 -3.183,1.585 -3.067,0 -4.592,-2.433 -4.592,-5.25 0,-2.817 1.505,-5.19 4.553,-5.19 1.022,0 2.489,0.384 3.222,1.562 h 0.04 v -5.134 h 1.64 z m -4.631,-1.215 c 2.199,0 3.048,-1.892 3.048,-3.763 0,-1.968 -0.887,-3.782 -3.144,-3.782 -2.238,0 -2.99,1.912 -2.99,3.856 0,1.875 0.964,3.689 3.086,3.689 z"
           id="path119" /><path
           d="m 179.224,37.645 c -0.29,0.175 -0.656,0.272 -1.178,0.272 -0.849,0 -1.389,-0.464 -1.389,-1.544 -0.908,1.063 -2.122,1.544 -3.513,1.544 -1.813,0 -3.297,-0.812 -3.297,-2.801 0,-2.255 1.678,-2.736 3.375,-3.067 1.813,-0.346 3.357,-0.229 3.357,-1.466 0,-1.426 -1.176,-1.658 -2.219,-1.658 -1.388,0 -2.411,0.424 -2.489,1.891 h -1.64 c 0.095,-2.469 2.005,-3.337 4.226,-3.337 1.793,0 3.744,0.403 3.744,2.738 v 5.132 c 0,0.771 0,1.12 0.521,1.12 0.134,0 0.29,-0.018 0.502,-0.096 z m -2.663,-5.111 c -0.636,0.461 -1.872,0.482 -2.972,0.674 -1.08,0.192 -2.005,0.579 -2.005,1.794 0,1.083 0.926,1.467 1.93,1.467 2.161,0 3.048,-1.354 3.048,-2.257 v -1.678 z"
           id="path121" /></g></g></g></svg>
